<svg width="36" height="36" viewBox="0 0 36 36" fill="none" xmlns="http://www.w3.org/2000/svg">
<path d="M18.2864 8.97997C13.3312 8.97997 9.33434 12.9777 9.33434 17.934C9.33434 22.8903 13.3312 26.888 18.2864 26.888C23.2416 26.888 27.2384 22.8903 27.2384 17.934C27.2384 12.9777 23.2416 8.97997 18.2864 8.97997ZM18.2864 23.7553C15.0842 23.7553 12.4664 21.1447 12.4664 17.934C12.4664 14.7233 15.0764 12.1127 18.2864 12.1127C21.4963 12.1127 24.1064 14.7233 24.1064 17.934C24.1064 21.1447 21.4885 23.7553 18.2864 23.7553ZM29.6926 8.6137C29.6926 9.77485 28.7577 10.7022 27.6046 10.7022C26.4437 10.7022 25.5166 9.76705 25.5166 8.6137C25.5166 7.46036 26.4515 6.52521 27.6046 6.52521C28.7577 6.52521 29.6926 7.46036 29.6926 8.6137ZM35.6217 10.7334C35.4893 7.93572 34.8504 5.45758 32.8013 3.41584C30.76 1.3741 28.2824 0.735087 25.4854 0.594815C22.6027 0.431164 13.9623 0.431164 11.0796 0.594815C8.29033 0.727294 5.81274 1.36631 3.76367 3.40805C1.71459 5.44979 1.08351 7.92793 0.943267 10.7256C0.779653 13.6089 0.779653 22.2513 0.943267 25.1346C1.07572 27.9323 1.71459 30.4104 3.76367 32.4522C5.81274 34.4939 8.28254 35.1329 11.0796 35.2732C13.9623 35.4368 22.6027 35.4368 25.4854 35.2732C28.2824 35.1407 30.76 34.5017 32.8013 32.4522C34.8426 30.4104 35.4815 27.9323 35.6217 25.1346C35.7853 22.2513 35.7853 13.6167 35.6217 10.7334ZM31.8975 28.2284C31.2898 29.7558 30.1134 30.9326 28.5785 31.5482C26.2801 32.46 20.8263 32.2496 18.2864 32.2496C15.7465 32.2496 10.2849 32.4522 7.99426 31.5482C6.4672 30.9403 5.29073 29.7636 4.67523 28.2284C3.76367 25.9295 3.97403 20.4745 3.97403 17.934C3.97403 15.3935 3.77146 9.9307 4.67523 7.63959C5.28294 6.11218 6.45941 4.93546 7.99426 4.31982C10.2927 3.40805 15.7465 3.61846 18.2864 3.61846C20.8263 3.61846 26.2879 3.41584 28.5785 4.31982C30.1056 4.92766 31.282 6.10439 31.8975 7.63959C32.8091 9.9385 32.5987 15.3935 32.5987 17.934C32.5987 20.4745 32.8091 25.9373 31.8975 28.2284Z" fill="#DD2A7B"/>
</svg>
