<svg width="37" height="36" viewBox="0 0 37 36" fill="none" xmlns="http://www.w3.org/2000/svg">
<path fill-rule="evenodd" clip-rule="evenodd" d="M31.1485 5.17099C27.8149 1.84599 23.3767 0.0118408 18.6524 0.0118408C8.90802 0.0118408 0.968498 7.89769 0.968498 17.5883C0.968498 20.6877 1.77724 23.7086 3.3257 26.3765L0.820557 35.4883L10.1902 33.0461C12.7742 34.4487 15.6837 35.1843 18.6426 35.1843C28.387 35.1843 36.3166 27.2984 36.3166 17.6079C36.3166 12.9097 34.4821 8.49599 31.1387 5.17099H31.1485ZM18.6524 32.2222C16.0191 32.2222 13.4252 31.516 11.1765 30.1821L10.6439 29.8682L5.08127 31.3198L6.56068 25.9253L6.21548 25.376C4.74593 23.0515 3.96678 20.364 3.96678 17.5981C3.96678 9.54548 10.565 2.98375 18.6721 2.98375C22.5975 2.98375 26.2862 4.50403 29.0576 7.26996C31.8291 10.0359 33.3578 13.7042 33.3578 17.6079C33.3578 25.6605 26.7596 32.2222 18.6623 32.2222H18.6524ZM26.7103 21.2762C26.2665 21.0604 24.0967 19.9913 23.6923 19.8442C23.2879 19.697 22.992 19.6284 22.6961 20.0599C22.4003 20.5013 21.5521 21.4919 21.2956 21.7862C21.0392 22.0804 20.7828 22.1197 20.3389 21.8941C19.8951 21.6783 18.4749 21.2075 16.7884 19.7166C15.4766 18.5495 14.589 17.1175 14.3325 16.6761C14.0761 16.2347 14.3029 15.9993 14.5298 15.7835C14.727 15.5874 14.9736 15.2735 15.1906 15.0185C15.4076 14.7635 15.4865 14.5771 15.6344 14.2829C15.7824 13.9886 15.7035 13.7336 15.595 13.5178C15.4865 13.302 14.5988 11.1344 14.2339 10.2517C13.8788 9.39835 13.5139 9.51605 13.2378 9.49643C12.9813 9.48662 12.6855 9.47682 12.3896 9.47682C12.0937 9.47682 11.6203 9.58471 11.2159 10.0261C10.8115 10.4675 9.66745 11.5267 9.66745 13.6944C9.66745 15.862 11.2455 17.9414 11.4723 18.2356C11.6893 18.5298 14.589 22.9632 19.0173 24.866C20.0727 25.3172 20.8913 25.5918 21.5323 25.788C22.5877 26.1214 23.5542 26.0724 24.3136 25.9645C25.1618 25.837 26.9273 24.9052 27.2922 23.8754C27.6571 22.8455 27.6571 21.9725 27.5486 21.7862C27.4401 21.5998 27.1443 21.4919 26.7004 21.2762H26.7103Z" fill="#00AC55"/>
</svg>
